# xmcd CD database file
#
# Track frame offsets:
#	150
#	14951
#	45168
#	71227
#	115998
#	151250
#	181135
#	227841
#	244284
#	269816
#	291479
#	333530
#
# Disc length: 4641 seconds
#
# Revision: 1
# Processed by: cddbd v1.5.2PL0 Copyright (c) Steve Scherf et al.
# Submitted via: CDex 1.51
#
DISCID=ba121f0c
DTITLE=Big Daddy Wilson - Songs From The Road - Live At Mühle Hunziken, Suisse 08/10/17
DYEAR=2018
DGENRE=Blues
TTITLE0=Wake Up (Live)
TTITLE1=Drop Down Here (Live)
TTITLE2=Miss Dorothy Lee (Live)
TTITLE3=Texas Boogie (Live)
TTITLE4=Ain't No Slave (Live)
TTITLE5=Anna Mae (Live)
TTITLE6=Walk A Mile In My Shoes (Live)
TTITLE7=Cross Creek Road (Live)
TTITLE8=Neckbone Stew (Live)
TTITLE9=7 Years (Live)
TTITLE10=Baby Don't Like (Live)
TTITLE11=I Just Need A Smile (Live)
EXTD=YEAR: 2018
EXTT0=
EXTT1=
EXTT2=
EXTT3=
EXTT4=
EXTT5=
EXTT6=
EXTT7=
EXTT8=
EXTT9=
EXTT10=
EXTT11=
PLAYORDER=
